<?xml version="1.0" encoding="UTF-8"?>
<!DOCTYPE svg PUBLIC "-//W3C//DTD SVG 1.1//EN" "http://www.w3.org/Graphics/SVG/1.1/DTD/svg11.dtd">
<svg xmlns="http://www.w3.org/2000/svg" version="1.1" width="512px"
     height="512px"
     style="shape-rendering:geometricPrecision; text-rendering:geometricPrecision; image-rendering:optimizeQuality; fill-rule:evenodd; clip-rule:evenodd">
    <g>
        <path style="opacity:0.98" fill="#fce35b"
              d="M 232.5,-0.5 C 247.833,-0.5 263.167,-0.5 278.5,-0.5C 368.144,10.3879 435.644,54.7213 481,132.5C 497.695,163.971 507.861,197.304 511.5,232.5C 511.5,247.833 511.5,263.167 511.5,278.5C 508.615,305.37 501.949,331.37 491.5,356.5C 490.667,294.668 490.167,232.668 490,170.5C 485.088,144.942 471.588,125.442 449.5,112C 397.5,82 345.5,52 293.5,22C 288.924,19.8765 284.257,18.0431 279.5,16.5C 260.587,10.6216 241.921,11.4549 223.5,19C 168.833,50.3333 114.167,81.6667 59.5,113C 38.3495,126.503 25.5162,145.67 21,170.5C 20.5,232.832 20.3333,295.166 20.5,357.5C 9.27781,332.277 2.27781,305.944 -0.5,278.5C -0.5,263.167 -0.5,247.833 -0.5,232.5C 10.3875,142.857 54.7208,75.3573 132.5,30C 163.971,13.3053 197.304,3.1386 232.5,-0.5 Z"/>
    </g>
    <g>
        <path style="opacity:1" fill="#08c0f9"
              d="M 279.5,16.5 C 221.602,49.1204 163.935,82.2871 106.5,116C 86.6726,130.474 75.1726,149.974 72,174.5C 71.5001,186.829 71.3335,199.162 71.5,211.5C 64.1591,211.334 56.8258,211.5 49.5,212C 46.4384,213.061 43.9384,214.894 42,217.5C 40.8457,235.412 40.3457,253.412 40.5,271.5C 40.6667,288.833 40.8333,306.167 41,323.5C 42.5,327.667 45.3333,330.5 49.5,332C 56.8258,332.5 64.1591,332.666 71.5,332.5C 71.1271,347.207 71.6271,361.873 73,376.5C 78.3349,400.017 91.1683,418.183 111.5,431C 158.223,457.355 204.557,484.188 250.5,511.5C 244.5,511.5 238.5,511.5 232.5,511.5C 213.735,509.539 195.402,505.539 177.5,499.5C 145.836,480.332 113.836,461.665 81.5,443.5C 54.7702,419.375 34.4369,390.708 20.5,357.5C 20.3333,295.166 20.5,232.832 21,170.5C 25.5162,145.67 38.3495,126.503 59.5,113C 114.167,81.6667 168.833,50.3333 223.5,19C 241.921,11.4549 260.587,10.6216 279.5,16.5 Z"/>
    </g>
    <g>
        <path style="opacity:1" fill="#04d0fa"
              d="M 279.5,16.5 C 284.257,18.0431 288.924,19.8765 293.5,22C 345.5,52 397.5,82 449.5,112C 471.588,125.442 485.088,144.942 490,170.5C 490.167,232.668 490.667,294.668 491.5,356.5C 491.742,384.841 481.075,408.007 459.5,426C 449.637,432.097 439.637,437.931 429.5,443.5C 396.498,461.998 363.831,480.998 331.5,500.5C 313.764,505.98 295.764,509.647 277.5,511.5C 268.5,511.5 259.5,511.5 250.5,511.5C 204.557,484.188 158.223,457.355 111.5,431C 91.1683,418.183 78.3349,400.017 73,376.5C 71.6271,361.873 71.1271,347.207 71.5,332.5C 71.5,332.167 71.5,331.833 71.5,331.5C 106.75,332.091 126.25,314.758 130,279.5C 132.804,257.581 126.637,238.747 111.5,223C 104.001,216.666 95.334,213.166 85.5,212.5C 81.03,211.514 76.3633,211.181 71.5,211.5C 71.3335,199.162 71.5001,186.829 72,174.5C 75.1726,149.974 86.6726,130.474 106.5,116C 163.935,82.2871 221.602,49.1204 279.5,16.5 Z"/>
    </g>
    <g>
        <path style="opacity:1" fill="#f8f6f8"
              d="M 245.5,210.5 C 252.092,209.64 257.592,211.64 262,216.5C 268.963,237.349 275.463,258.349 281.5,279.5C 287.537,258.349 294.037,237.349 301,216.5C 308.968,208.577 316.968,208.577 325,216.5C 326.562,218.957 327.562,221.624 328,224.5C 333.667,254.167 339.333,283.833 345,313.5C 347.855,326.687 342.689,332.854 329.5,332C 326.898,331.117 324.731,329.617 323,327.5C 318.575,308.956 314.575,290.289 311,271.5C 305.669,289.489 300.336,307.489 295,325.5C 290.96,331.979 285.127,334.479 277.5,333C 274.098,331.6 271.264,329.433 269,326.5C 263.486,308.109 257.819,289.775 252,271.5C 248.892,287.814 245.892,304.147 243,320.5C 241.402,329.885 235.902,333.719 226.5,332C 219.612,329.058 216.779,323.891 218,316.5C 223.667,285.5 229.333,254.5 235,223.5C 236.156,217.148 239.656,212.814 245.5,210.5 Z"/>
    </g>
    <g>
        <path style="opacity:1" fill="#f7f6f8"
              d="M 400.5,210.5 C 437.448,208.972 460.614,225.972 470,261.5C 472.953,292.774 460.453,315.274 432.5,329C 401.357,339.002 376.19,330.835 357,304.5C 341.425,274.301 345.925,247.468 370.5,224C 379.475,217.009 389.475,212.509 400.5,210.5 Z"/>
    </g>
    <g>
        <path style="opacity:1" fill="#f8f6f8"
              d="M 154.5,210.5 C 169.504,210.333 184.504,210.5 199.5,211C 208.151,213.123 211.651,218.623 210,227.5C 208.402,232.099 205.235,234.932 200.5,236C 190.172,236.5 179.839,236.666 169.5,236.5C 169.5,244.167 169.5,251.833 169.5,259.5C 179.172,259.334 188.839,259.5 198.5,260C 207.171,263.524 209.671,269.691 206,278.5C 204.5,280 203,281.5 201.5,283C 190.912,284.429 180.245,284.929 169.5,284.5C 169.5,292.167 169.5,299.833 169.5,307.5C 179.839,307.334 190.172,307.5 200.5,308C 209.404,311.311 212.238,317.478 209,326.5C 207.749,329.381 205.583,331.214 202.5,332C 185.833,332.667 169.167,332.667 152.5,332C 149.829,330.75 147.663,328.917 146,326.5C 144.353,290.894 144.02,255.227 145,219.5C 146.871,215.006 150.038,212.006 154.5,210.5 Z"/>
    </g>
    <g>
        <path style="opacity:1" fill="#dddbee"
              d="M 71.5,211.5 C 76.3633,211.181 81.03,211.514 85.5,212.5C 80.8333,212.5 76.1667,212.5 71.5,212.5C 71.5,220.833 71.5,229.167 71.5,237.5C 69.5,237.5 67.5,237.5 65.5,237.5C 65.5,260.5 65.5,283.5 65.5,306.5C 67.5,306.5 69.5,306.5 71.5,306.5C 71.5,314.833 71.5,323.167 71.5,331.5C 71.5,331.833 71.5,332.167 71.5,332.5C 64.1591,332.666 56.8258,332.5 49.5,332C 45.3333,330.5 42.5,327.667 41,323.5C 40.8333,306.167 40.6667,288.833 40.5,271.5C 40.3457,253.412 40.8457,235.412 42,217.5C 43.9384,214.894 46.4384,213.061 49.5,212C 56.8258,211.5 64.1591,211.334 71.5,211.5 Z"/>
    </g>
    <g>
        <path style="opacity:1" fill="#f8f6f7"
              d="M 85.5,212.5 C 95.334,213.166 104.001,216.666 111.5,223C 126.637,238.747 132.804,257.581 130,279.5C 126.25,314.758 106.75,332.091 71.5,331.5C 71.5,323.167 71.5,314.833 71.5,306.5C 88.7335,308.475 99.5668,301.142 104,284.5C 107.29,270.63 105.29,257.63 98,245.5C 90.723,238.091 81.8896,235.425 71.5,237.5C 71.5,229.167 71.5,220.833 71.5,212.5C 76.1667,212.5 80.8333,212.5 85.5,212.5 Z"/>
    </g>
    <g>
        <path style="opacity:1" fill="#0cd0fa"
              d="M 404.5,235.5 C 432.301,236.465 445.801,250.799 445,278.5C 438.455,300.7 423.622,310.2 400.5,307C 380.084,299.684 371.251,285.184 374,263.5C 378.971,248.357 389.138,239.023 404.5,235.5 Z"/>
    </g>
    <g>
        <path style="opacity:1" fill="#27c2f9"
              d="M 71.5,237.5 C 71.5,260.5 71.5,283.5 71.5,306.5C 69.5,306.5 67.5,306.5 65.5,306.5C 65.5,283.5 65.5,260.5 65.5,237.5C 67.5,237.5 69.5,237.5 71.5,237.5 Z"/>
    </g>
    <g>
        <path style="opacity:1" fill="#0fd0fa"
              d="M 71.5,237.5 C 81.8896,235.425 90.723,238.091 98,245.5C 105.29,257.63 107.29,270.63 104,284.5C 99.5668,301.142 88.7335,308.475 71.5,306.5C 71.5,283.5 71.5,260.5 71.5,237.5 Z"/>
    </g>
    <g>
        <path style="opacity:0.921" fill="#fae35c"
              d="M 81.5,443.5 C 113.836,461.665 145.836,480.332 177.5,499.5C 140.805,488.5 108.805,469.833 81.5,443.5 Z"/>
    </g>
    <g>
        <path style="opacity:0.915" fill="#f9e35d"
              d="M 429.5,443.5 C 401.534,470.164 368.868,489.164 331.5,500.5C 363.831,480.998 396.498,461.998 429.5,443.5 Z"/>
    </g>
</svg>
