<?xml version="1.0" encoding="UTF-8"?>
<!DOCTYPE svg PUBLIC "-//W3C//DTD SVG 1.1//EN" "http://www.w3.org/Graphics/SVG/1.1/DTD/svg11.dtd">
<svg xmlns="http://www.w3.org/2000/svg" version="1.1" width="512px"
     height="512px"
     style="shape-rendering:geometricPrecision; text-rendering:geometricPrecision; image-rendering:optimizeQuality; fill-rule:evenodd; clip-rule:evenodd">
    <g>
        <path style="opacity:0.995" fill="#ff0000"
              d="M 511.5,213.5 C 511.5,240.833 511.5,268.167 511.5,295.5C 510.316,324.307 506.816,352.973 501,381.5C 493.036,405.796 476.536,420.63 451.5,426C 416.007,430.864 380.34,433.531 344.5,434C 264.787,436.545 185.121,435.545 105.5,431C 90.7569,429.992 76.0903,428.325 61.5,426C 37.8956,421.728 21.3956,408.562 12,386.5C 8.64658,376.4 6.31325,366.067 5,355.5C 2.63837,335.394 0.805033,315.394 -0.5,295.5C -0.5,269.167 -0.5,242.833 -0.5,216.5C 0.70704,198.964 2.20704,181.297 4,163.5C 5.08777,147.051 9.08777,131.385 16,116.5C 25.5678,100.608 39.4011,90.4414 57.5,86C 70.3879,83.4778 83.3879,81.8111 96.5,81C 149.109,77.5435 201.775,76.0435 254.5,76.5C 307.225,76.0213 359.892,77.5213 412.5,81C 424.22,81.872 435.887,83.2053 447.5,85C 477.775,90.6077 496.275,108.441 503,138.5C 507.428,163.468 510.262,188.468 511.5,213.5 Z"/>
    </g>
    <g>
        <path style="opacity:1" fill="#fffefe"
              d="M 204.5,179.5 C 249.105,204.471 293.438,229.971 337.5,256C 293.252,281.374 249.085,306.874 205,332.5C 204.5,281.501 204.333,230.501 204.5,179.5 Z"/>
    </g>
</svg>
